# xmcd
#
# Track frame offsets:
#	182
#	11132
#	24482
#	34382
#	44732
#	55157
#	64382
#	75782
#	86607
#	98432
#	108507
#	121932
#	132832
#	143907
#	154657
#	165207
#	176057
#	184632
#	197432
#	206832
#	216557
#	228357
#	239332
#	250782
#	262232
#	275232
#	287907
#	297932
#	309832
#	318232
#
# Disc length: 4387 seconds
#
# Revision: 1
# Processed by: cddbd v1.5.1PL0 Copyright (c) Steve Scherf et al.
# Submitted via: EasyCDDAExtractor 5.0.6
#
DISCID=b511211e
DTITLE=Various Artist - Northern Soul Time CD 2
DYEAR=1900
DGENRE=Blues
TTITLE0=Gene Woodbury - Ever Again
TTITLE1=Magigians - Is It All Gone
TTITLE2=Spencer - We Got A Love Thats Outta Sight
TTITLE3=Yvonne Baker - I Can't Change
TTITLE4=Gloria Taylor - Poor Unfortunate Me
TTITLE5=Maskman and The Agents - I Wouldn't Come Back
TTITLE6=Fabulous Jades - Come On and Live
TTITLE7=Boss 4 - Walkin' By
TTITLE8=Casanova Two - We Got To Keep On
TTITLE9=Madline Wilson - Dial L For Lonely
TTITLE10=Dave Love - Colalined Baby
TTITLE11=Herbert Hunter - I Was Born To Love You
TTITLE12=Magnificents - My Heart Is Calling You
TTITLE13=Patti Stokes - Good Girl
TTITLE14=Remarkables - I Can't Give Up On Loosing You
TTITLE15=Gwen Owens - Lies
TTITLE16=John and The Weirdest - Can't Get Over These Memories
TTITLE17=Bobby Wells - Be's That Way Sometimes
TTITLE18=Startones - Lovin' You Baby
TTITLE19=George Lemons - Fascinating Girl
TTITLE20=Para-Monts - Come Go With Me
TTITLE21=Kris Peterson - Just As Much
TTITLE22=The Du-Shons - You Better Think It's Over
TTITLE23=Dynamics - Yes I Love You Baby
TTITLE24=Ernie Marbray - Ain't Nobodys Business
TTITLE25=Ruby Andrews - Just Lovin' You
TTITLE26=Doni Burdick - I Have Faith In You (Inst.)
TTITLE27=Paul A Durante - Your Not My Kind
TTITLE28=Little John - Heartbreakin' Time
TTITLE29=Executive 4 - I Gotta Good Thing Going
EXTD=tim1701
EXTT0=
EXTT1=
EXTT2=
EXTT3=
EXTT4=
EXTT5=
EXTT6=
EXTT7=
EXTT8=
EXTT9=
EXTT10=
EXTT11=
EXTT12=
EXTT13=
EXTT14=
EXTT15=
EXTT16=
EXTT17=
EXTT18=
EXTT19=
EXTT20=
EXTT21=
EXTT22=
EXTT23=
EXTT24=
EXTT25=
EXTT26=
EXTT27=
EXTT28=
EXTT29=
PLAYORDER=
